 <svg width="148" height="114" viewBox="0 0 148 114" fill="none" xmlns="http://www.w3.org/2000/svg">
                  <g filter="url(#filter0_i_4_17)">
                  <path d="M15.1062 59.9943L15 59C15.1062 59.9943 15.1063 59.9943 15.1065 59.9943L15.1077 59.9942L15.1126 59.9937L15.1325 59.9916L15.2119 59.9832C15.2822 59.9758 15.3869 59.9649 15.5238 59.9508C15.7976 59.9226 16.2001 59.8817 16.7139 59.8311C17.7417 59.7299 19.2147 59.5896 20.9935 59.4337C24.5524 59.1218 29.3311 58.7479 34.2176 58.4987C39.1098 58.2492 44.0855 58.1262 48.047 58.3114C50.0309 58.4042 51.7282 58.5729 53.0209 58.8321C53.6674 58.9617 54.1863 59.1087 54.5778 59.2675C54.9828 59.4318 55.1765 59.5788 55.2526 59.6644C55.3482 59.7719 55.4898 60.0086 55.6406 60.4457C55.7866 60.869 55.9195 61.4155 56.0357 62.0819C56.2679 63.4144 56.4183 65.1386 56.5009 67.1351C56.6657 71.123 56.5561 76.0892 56.3344 80.9545C56.1128 85.8148 55.7803 90.5531 55.5031 94.0778C55.3645 95.8397 55.2398 97.2974 55.1497 98.3141C55.1047 98.8225 55.0684 99.2206 55.0433 99.4913C55.0308 99.6267 55.0211 99.7302 55.0145 99.7998L55.0071 99.8783L55.0052 99.898L55.0047 99.9029L55.0046 99.904C55.0046 99.9043 55.0046 99.9043 56 100L55.0046 99.9043L54.8993 101H56H84.5H85.5V100V59V23H95.5714L115.276 43.6897L116.05 44.5023L116.768 43.6402L133.968 23H144V113H133.5H113.5V101H133.5H134.5V100V43V40.7308L132.825 42.262L115.991 57.6537L98.6644 42.2526L97 40.7732V43V100V113H56H43.9659C43.9737 112.979 43.9816 112.959 43.9895 112.938C44.3368 112.019 44.8165 110.699 45.3492 109.089C46.4136 105.87 47.6946 101.475 48.5499 96.7866C49.4033 92.1092 49.8447 87.0798 49.1888 82.6158C48.5326 78.1492 46.7546 74.1197 43.0524 71.6664C40.6252 70.0581 37.6059 69.288 34.5187 69.0016C31.4232 68.7145 28.1868 68.9072 25.2651 69.2836C22.3395 69.6605 19.7027 70.2251 17.7985 70.6949C16.8455 70.93 16.0737 71.1418 15.5385 71.2955C15.2708 71.3724 15.0622 71.4347 14.9194 71.4781C14.848 71.4999 14.793 71.5169 14.7554 71.5286L14.7121 71.5422L14.7004 71.5459L14.697 71.547L14.696 71.5473C14.6956 71.5474 14.6954 71.5475 15 72.5L14.6954 71.5475L14 71.7699V72.5V113H1.5V12.5H14V59V60.1125L15.1062 59.9943Z" fill="#FEDE20" stroke="black" stroke-width="2"/>
                  <path d="M98 9.5C98 14.2461 94.368 18 90 18C85.632 18 82 14.2461 82 9.5C82 4.75395 85.632 1 90 1C94.368 1 98 4.75395 98 9.5Z" fill="#FEDE20" stroke="black" stroke-width="2"/>
                  <path d="M147 9.5C147 14.2461 143.368 18 139 18C134.632 18 131 14.2461 131 9.5C131 4.75395 134.632 1 139 1C143.368 1 147 4.75395 147 9.5Z" fill="#FEDE20" stroke="black" stroke-width="2"/>
                  </g>
                  <defs>
                  <filter id="filter0_i_4_17" x="0.5" y="0" width="147.5" height="118" filterUnits="userSpaceOnUse" color-interpolation-filters="sRGB">
                  <feFlood flood-opacity="0" result="BackgroundImageFix"/>
                  <feBlend mode="normal" in="SourceGraphic" in2="BackgroundImageFix" result="shape"/>
                  <feColorMatrix in="SourceAlpha" type="matrix" values="0 0 0 0 0 0 0 0 0 0 0 0 0 0 0 0 0 0 127 0" result="hardAlpha"/>
                  <feOffset dy="4"/>
                  <feGaussianBlur stdDeviation="2"/>
                  <feComposite in2="hardAlpha" operator="arithmetic" k2="-1" k3="1"/>
                  <feColorMatrix type="matrix" values="0 0 0 0 0 0 0 0 0 0 0 0 0 0 0 0 0 0 0.25 0"/>
                  <feBlend mode="normal" in2="shape" result="effect1_innerShadow_4_17"/>
                  </filter>
                  </defs>
                </svg>